<svg width="30" height="30" viewBox="0 0 30 30" fill="none" xmlns="http://www.w3.org/2000/svg">
<path fill-rule="evenodd" clip-rule="evenodd" d="M30 15C30 23.2843 23.2843 30 15 30C6.71573 30 0 23.2843 0 15C0 6.71573 6.71573 0 15 0C23.2843 0 30 6.71573 30 15ZM8.80563 11.8436C7.96671 11.0047 7.96671 9.64451 8.80563 8.80558C9.64456 7.96665 11.0047 7.96665 11.8437 8.80558L15.1433 12.1052L18.443 8.80558C19.2819 7.96665 20.6421 7.96665 21.481 8.80558C22.3199 9.64451 22.3199 11.0047 21.481 11.8436L18.1813 15.1433L21.481 18.4429C22.3199 19.2819 22.3199 20.642 21.481 21.481C20.642 22.3199 19.2819 22.3199 18.4429 21.481L15.1433 18.1813L11.8437 21.481C11.0048 22.3199 9.64459 22.3199 8.80566 21.481C7.96674 20.642 7.96674 19.2819 8.80566 18.4429L12.1053 15.1433L8.80563 11.8436Z" fill="#1B0C24"/>
</svg>
